<svg xmlns="http://www.w3.org/2000/svg" xml:space="preserve" viewBox="0 0 502 686"><path fill="#f1edd8" d="M130.04 478.024c2.452-5.412.331-8.58-4.305-12.009-17.22-12.737-31.984-27.923-42.19-46.966-4.978-9.289-9.468-18.876-13.583-28.58-4.58-10.8-8.914-21.746-12.565-32.888-4.223-12.886-7.988-25.955-11.208-39.127-3.333-13.63-6.229-27.405-8.472-41.254-2.139-13.204-3.5-26.559-4.618-39.897-.844-10.082-1.442-20.276-.928-30.358.69-13.53 2.235-27.042 3.995-40.486 2.796-21.345 10.058-41.53 19.371-60.664C66.09 84.115 80.412 64.957 99.08 49.08c14.243-12.112 29.81-21.708 47.39-27.44 13.464-4.388 27.684-6.366 41.466-.652 6.086 2.523 11.202 6.494 14.68 12.705 4.884 8.72 6.201 17.967 6.415 27.64.057 2.584.644 5.155 1.094 8.3-2.485 1.328-5.078 2.086-8.006 2.726-.95.422-1.565.962-2.46 1.666-1.283.553-2.285.942-3.662 1.194-1.285-1.423-2.4-2.612-3.07-4.014-2.215-4.647-3.824-9.641-6.483-14.004-4.892-8.031-11.532-13.38-21.797-13.31-13.593.091-23.61 7.37-32.73 15.928-13.006 12.204-23.275 26.595-32.061 42.176-8.818 15.637-16.683 31.573-21.355 48.984-7.105 26.481-10.123 53.268-7.62 80.71 1.595 17.474 3.941 34.744 8.769 51.631 6.425 22.475 18.167 42.123 31.877 60.82 5.777 7.877 12.954 12.957 22.817 14.986 3.026 1.204 5.685 2.326 8.415 3.231 3.998 1.326 8.047 2.498 12.165 4.04.756.698 1.422 1.091 2.416 1.657 7.742 3.446 15.155 6.718 22.64 10.302.724.742 1.374 1.172 2.36 1.686 5.712 3.413 11.089 6.743 16.56 10.406 2.738 2.414 5.382 4.496 8.183 6.896 2.326 2.092 4.532 3.824 6.657 5.65a134 134 0 0 1 7.128 6.587c.356.705.67 1.138 1.16 1.865 1.434 1.73 2.692 3.166 4.098 4.904 5.292 7.672 10.637 14.912 15.528 22.447 6.159 9.487 9.13 20.244 11.465 31.508.6.834 1.191 1.35 1.781 2.22.008 1.058.017 1.763-.182 2.638.224.741.655 1.312 1.125 2.27.41 1.606.784 2.825 1.157 4.22.001.41 0 .645-.26 1.23-.367 2.602-.473 4.852-.625 7.467.28 1.454.604 2.543.914 4.098-.013 4.83-.01 9.195-.255 13.725-.38.725-.514 1.283-.678 2.175-.037.779-.043 1.224-.318 1.869-.436 1.06-.603 1.922-.918 3.093-1.054 2.094-1.96 3.877-3.184 5.71-.766.695-1.214 1.34-1.884 2.093-.5.313-.688.58-1.123.904-.79.009-1.24.024-1.686.015.007-.023-.04-.006-.025-.448-.332-3.144-.678-5.846-1.005-8.925-.041-1.128-.101-1.879-.123-3.029-3.255-16.854-7.818-32.912-15.085-48.1-10.92-22.822-29.402-37.608-51.652-48.325-20.93-10.082-41.167-21.193-59.005-36.373-17.147-14.593-29.952-32.167-38.7-52.842-.626-1.482-2.4-2.479-3.64-3.701-.176 1.706-.994 3.672-.427 5.079 5.672 14.07 12.845 27.39 23.604 38.19 10.041 10.08 19.908 20.846 31.638 28.612 16.888 11.182 35.421 19.872 53.201 29.717 22.087 12.23 37.955 29.982 46.204 53.938 3.963 11.51 6.754 23.425 10.062 35.57.297 2.806.607 5.2.675 7.818-.053 1.41.137 2.593.313 4.153.005 1.124.023 1.874.014 2.957-.03.782-.03 1.23-.339 1.83-6.816 5.524-14.52 6.899-22.663 6.366-.01-5.13.18-9.804-.044-14.457-1.245-25.956-13.094-45.679-35-59.569-17.329-10.987-36.29-19.104-52.235-32.643-17.026-14.457-32.202-30.052-42.761-49.83-1.629-3.051-2.767-6.365-4.41-9.408-.532-.985-1.951-1.491-2.964-2.217-.466 1.276-1.197 2.53-1.302 3.834-.07.864.693 1.836 1.191 2.698 4.728 8.185 8.97 16.708 14.325 24.462 12.514 18.125 28.763 32.6 47.151 44.47 14.198 9.164 29.16 17.136 43.59 25.954 11.141 6.809 18.568 16.96 23.324 28.934 4.597 11.577 5.755 23.772 4.667 36.18-6.583-.396-8.687-5.509-11.677-9.697-4.569-6.4-4.817-15.315-11.89-20.6-5.1-8.097-12.8-12.64-20.736-16.599-10.576-5.277-21.431-10-32.214-14.854-2.641-1.189-5.442-2.219-6.427 2.243-.222 1.008-1.686 1.743-2.578 2.604"/><path fill="#f1edd8" d="M257 482.533c0-.235.001-.47.333-1.048.728-1.386 1.123-2.426 1.51-3.853.008-3.137.023-5.89.113-9.004 3.073-5.944 5.97-11.585 9.108-17.088 1.837-3.22 4.059-6.219 6.438-9.405 2.44-2.06 4.55-4.03 6.995-6.075 1.786-1.68 3.237-3.286 5.078-4.9 2.047-.55 3.832-.86 5.338-1.681 4.419-2.408 8.727-5.02 13.396-7.57.816-.629 1.313-1.238 2.171-1.862 3.079-1.376 5.796-2.736 8.83-4.125.827-.63 1.338-1.232 2.203-1.878 8.065-4.081 16.093-7.618 23.397-12.29 7.767-4.967 14.847-11.009 22.556-16.625 1.415-1.022 2.5-2.001 3.897-3.046 1.094-.723 1.876-1.378 2.977-2.084 1.122-1.012 1.924-1.974 3.024-3.096 3.449-3.72 6.6-7.28 10.093-10.89 10.828-10.112 16.97-22.972 23.158-35.777.299-.618-.543-2.18-1.28-2.76-.455-.358-2.058.022-2.55.588-.954 1.1-1.483 2.568-2.197 3.879-3.234 5.93-6.352 11.929-9.745 17.766-2.796 4.81-5.92 9.43-9.196 14.315-3.422 3.428-6.548 6.676-10.002 9.973-1.729 1.378-3.127 2.706-4.79 4.18-.494.688-.725 1.229-1.26 1.913-1.747 1.393-3.188 2.643-4.91 4.08-4.413 3.089-8.545 5.99-12.995 8.916-.806.64-1.295 1.253-2.094 2.005-2.733 1.44-5.157 2.744-7.898 4.052-.8.612-1.282 1.219-1.996 1.843-.232.017-.693.087-1.037.104-1.487.963-2.629 1.909-4.124 2.897-2.413 1.058-4.472 2.075-6.848 3.111-.822.622-1.327 1.224-2.193 1.843-2.07.726-3.78 1.436-5.808 2.161-.808.627-1.297 1.239-2.147 1.865-3.086 1.38-5.81 2.747-8.853 4.132-.815.627-1.31 1.234-2.122 1.987-3.064 1.434-5.81 2.722-8.876 4.027-.81.622-1.304 1.228-2.147 1.875-2.414 1.368-4.478 2.696-6.862 4.061-.801.663-1.282 1.286-2.063 2.049-1.469 1.325-2.637 2.511-4.163 3.74-2.41 2.066-4.464 4.09-6.719 6.376-5.038 6.797-9.873 13.333-14.96 20-.904.07-1.805.259-2.162-.098-.968-.966-1.705-2.163-2.541-3.661-.797-3.052-1.289-5.847-2.43-8.345-3.4-7.444-7.056-14.771-10.459-22.45 2.373-4.408 4.59-8.511 7.186-12.622 5.052-2.754 9.5-6.037 14.447-8.147 15.358-6.55 30.735-13.127 46.43-18.795 14.39-5.197 28.54-10.666 40.907-19.843 15.76-11.695 28.45-26.163 39.135-42.65 11.869-18.315 18.37-38.553 22.57-59.606 2.39-11.982 4.241-24.187 4.932-36.37 1.833-32.326-1.484-64.13-13.79-94.368-5.047-12.403-10.907-24.629-17.823-36.074-6.565-10.865-14.617-20.913-22.706-30.752-8.317-10.117-18.214-19.025-31.194-22.24-14.04-3.475-20.724-1.866-29.51 9.101-6.508 8.124-8.894 17.642-10.79 27.468-.676 3.51-1.467 6.997-2.452 10.317-1.071-1.064-1.897-1.95-2.7-3.193-.672-.807-1.366-1.257-2.33-1.893-3.007-2.47-5.742-4.752-8.537-7.379-.827-.638-1.596-.932-2.54-1.315-.427-.234-.557-.45-.566-.74-.287-6.623-.932-13.254-.785-19.868.306-13.736 5.05-25.645 16.645-33.715 8.608-5.992 18.497-7.63 28.935-6.628 14.18 1.36 27.67 5.473 40.081 12.014 9.851 5.19 18.953 12.003 27.793 18.861 11.864 9.204 21.28 20.813 30.248 32.835 8.675 11.63 15.143 24.422 20.906 37.582 7.938 18.128 12.642 37.31 16.028 56.692 3.432 19.652 4.744 39.675 3.06 59.551-1.672 19.723-3.028 39.54-8.364 58.862-4.782 17.311-7.454 35.229-12.64 52.4-7.971 26.387-16.65 52.692-31.956 76.004-11.238 17.117-24.218 32.767-41.797 43.989-1.104.705-1.376 2.712-2.399 4.457-5.4-.3-9.268 1.926-13.023 5.368-20.388 10.906-42.886 12.93-64.504 17.651 1.987-3.735 3.495-7.501 5.989-10.427 9.04-10.606 20.253-18.447 32.722-24.58 19.153-9.42 36.547-21.365 52.123-36.01 11.607-10.914 21.017-23.468 28.784-37.291.94-1.675.85-3.93 1.237-5.915l-3.078-2.002c-.534 1.437-.823 3.034-1.642 4.284-5.134 7.838-9.903 15.981-15.7 23.304-12.673 16.007-28.22 28.938-45.63 39.51-11.614 7.055-23.872 13.074-35.318 20.377-11.046 7.048-19.816 16.487-24.739 29.407-4.45 1.11-8.652 1.94-12.857 2.37-.314-2.477-.625-4.552-.704-6.823.048-1.064-.136-1.932-.334-3.156-.988-1.614-1.964-2.872-2.939-4.13"/><path fill="#8c6a58" d="M274.022 79.958c2.736 2.283 5.471 4.566 8.551 7.338a20 20 0 0 0 2.234 1.947c.826.886 1.652 1.772 2.787 3.152 1.684 1.86 3.058 3.227 4.455 4.895.38.751.738 1.2 1.091 1.994 1.952 2.127 3.91 3.91 6.158 5.808 1.268.481 2.244.847 3.38 1.49.885.642 1.61 1.006 2.58 1.466.592.14.94.184 1.436.515.866.676 1.585 1.063 2.575 1.64 3.437 3.055 6.601 5.918 9.786 9.1.609.873 1.197 1.43 1.844 2.281.463.991.867 1.686 1.254 2.698.513.933 1.044 1.55 1.59 2.524.527 1.952 1.04 3.546 1.483 5.435.22.78.51 1.266.828 2.089.19.758.35 1.178.396 1.93.41 1.81.934 3.289 1.457 5.163.146 1.437.292 2.478.341 3.85.215 1.12.525 1.91.797 3.15-.015 3.169.009 5.885-.25 8.847-.371 1.754-.458 3.264-.647 5.144-1.457 3.75-3.225 7.034-4.05 10.539-.817 3.472-.684 7.168-.967 10.765 3.138 0 6.45.663 9.383-.112 13.025-3.44 24.52 5.07 24.361 18.501-.037 3.132-1.06 6.295-.802 9.374.187 2.236 1.2 5.13 2.852 6.28 1.286.897 4.227-.163 6.247-.877 1.562-.551 2.838-1.914 4.316-2.97 5.132 11.376-.73 18.784-17.395 22.538-.668 4.499 1.442 7.472 5.61 8.5 4.23 1.042 4.133 3.608 1.727 5.52-3.38 2.689-7.569 4.361-11.79 6.4-5.687-.315-8.596-3.611-10.865-7.994-3.41-6.586-7.51-7.244-12.88-2.102-1.854 1.774-3.354 3.918-5.484 6.45 6.463 2.53 12.731 4.205 14.622 11.405 1.763 6.717-.499 12.147-4.244 17.788-2.4-3.22-4.405-5.912-6.53-8.907-.84-.656-1.56-1.009-2.625-1.508-1.087-.188-1.83-.23-2.91-.502-2.99-.341-5.651-.375-8.299-.576-11.275-.858-20.431-6.164-23.78-16.778-2.883-9.143-6.71-16.14-15.705-19.779-.304-.122-.582-.309-.947-.806-1.652-3.365-3.902-6.236-4.641-9.453-1.053-4.58-.995-9.414-1.261-14.436.471-1.344.792-2.392 1.412-3.546.64-.806.983-1.506 1.44-2.54 2.964-7.219 6.346-13.936 8.542-21.022 3.48-11.228-.419-17.938-11.662-21.804-.158-.054-.313-.142-.474-.153-7.42-.544-14.836-1.157-22.263-1.598-8.02-.477-15.984-1.13-22.628-6.339-4.116-3.226-8.071-6.659-12.096-9.996-2.525 9.984-8.629 17.1-17.841 21.395-3.764 1.754-5.055 3.963-3.446 7.76 4.266 10.075 8.256 20.282 12.953 30.151 2.366 4.971 6.03 9.325 8.998 14.306-2.43 4.115-4.753 7.88-7.355 11.839-7.365 8.943-7.27 14.39.266 22.345 4.591 4.846 6.014 10.645 5.025 17.008-.585 3.765-2.116 7.207-6.601 8.288.75-14.198-3.059-20.766-13.248-22.482 2.583 12.78-1.734 21.983-14.478 26.783-1.49-.03-2.574-.011-3.83-.234-.74-.257-1.307-.271-2.212-.447-5.325-2.773-10.152-5.782-15.346-7.884-5.336-2.16-8.92-.322-11.31 4.887-.825 1.796-1.293 3.755-2.27 5.558-1.925-1.46-3.949-2.56-5.009-4.261-6.13-9.837-1.993-23.714 8.642-28.366 4.515-1.975 9.423-3.208 14.268-4.227 3.829-.805 5.27-2.957 4.456-6.34-.726-3.016-2.062-5.95-3.519-8.716-6.59-12.508-6.301-24.538 2.044-36.183 1.612-2.251 3-4.662 4.423-6.89-3.537-3.72-6.64-7.168-9.938-10.42-14.262-14.06-6.091-28.41 4.953-36.191 2.277-1.604 4.524-4.64 4.922-7.296 2.689-17.94 9.284-33.898 22.436-47.042.856-.653 1.399-1.258 2.183-1.962.65-.421 1.06-.743 1.787-1.094.875-.618 1.433-1.206 2.263-1.835.656-.4 1.04-.759 1.752-1.23 2.564-1.587 4.803-3.064 7.042-4.54a59 59 0 0 1 3.6-1.294c1.224-.612 1.853-1.098 2.482-1.584 2.593-.759 5.186-1.517 8.042-2.536 1.755-.496 3.246-.734 5.377-1.009 1.141-.303 1.644-.568 2.147-.834 1.057-.066 2.114-.133 3.9-.207a48 48 0 0 0 4.117-.73c4.338.023 8.675.045 13.727.267 1.902.226 3.09.25 4.277.275.728.153 1.456.307 2.795.713 1.785.393 2.96.533 4.134.674.588.147 1.176.293 2.235.694 1.259.486 2.047.718 2.836.95 4.698 2.206 9.396 4.412 14.455 6.722.37.392.5.608 1.062 1.123 1.029.707 1.746 1.042 2.464 1.378"/><path fill="#c6af99" d="M120.022 652.73c-.41.009-.819.018-1.692-.337-10.344-2.088-19.65-5.419-28.396-10.323a9 9 0 0 1-1.64-1.403c-1.236-1.243-2.182-2.02-3.127-2.795-.27-.487-.539-.973-1.037-1.978-9.39-10.69-10.803-23.262-11.033-36.104-.22-12.242-.05-24.492-.21-36.736-.019-1.414-1.049-2.816-1.61-4.223-.013-.413-.026-.827.217-1.874.058-5.418-.002-10.212-.367-14.983-1.016-13.29 1.966-26.181 15.487-33.368 4.28-2.274 8.911-3.885 13.382-5.8 3.033.011 6.066.022 9.775.324 4.193 1.148 7.71 2.005 11.563 2.91 1.127 1.013 1.919 1.978 2.66 3.296-.748 1.66-1.323 3.054-2.167 4.26-5.773 8.25-12.229 16.1-17.232 24.79-4.688 8.143-7.858 17.16-11.697 25.792l1.149.686c.976-.795 2.234-1.407 2.885-2.413 6.21-9.586 15.474-13.98 26.3-16.07 9.406-1.815 21.528 2.733 25.937 9.954 3.53 5.78 6.952 11.654 10.903 17.14 5.704 7.92 11.501 15.82 17.872 23.201 11.405 13.213 23.904 25.305 39.094 34.688 3.357 2.113 6.653 3.882 10.016 6.01 6.49 4.57 8.72 4.53 13.48-.478 2.706-2.845 4.94-6.133 7.591-9.034 2.627-2.875 5.33-5.981 10.364-3.916 4.756 1.07 9.12 2.132 13.543 3.507.742.693 1.423 1.074 2.546 1.458 8.1.38 15.76.757 23.717 1.423 6.73.086 13.235.416 19.576-.45 8.477-1.158 17.082-2.46 25.174-5.105 13.489-4.41 26.677-9.549 39.013-17.02 11.795-7.144 23.696-13.946 33.464-23.808 6.661-6.725 13.608-13.276 19.441-20.681 6.278-7.97 11.405-16.847 17.383-25.287 9.681 5.387 14.057 17.436 12.138 27.276-.69 3.547-.99 7.17-1.467 10.757 0 0-.073.444-.438.758-1.336 1.995-2.2 3.75-3.295 5.344-7.902 11.508-17.322 21.606-28.096 30.492-2.995 2.47-5.554 5.47-8.313 8.226 0 0-.401.122-.963.186-9.111 4.468-17.672 8.852-26.207 13.285-3.992 2.074-7.934 4.244-11.9 6.37-.401.058-.803.116-1.73-.024-13.705 3.832-26.858 7.95-40.074 11.855-5.935 1.753-11.996 3.08-18 4.6-.417.006-.833.012-2-.029-3.226.514-5.7 1.073-8.176 1.632-1.025.034-2.05.069-3.785-.157-6.672-.225-12.635-.17-18.597-.158-14.58.028-29.16.002-43.74.062-10.561.044-21.123.19-31.684.29-2.326.01-4.653.02-7.583-.353-1.33-.693-2.041-1.24-2.78-1.28-13.143-.722-26.285-1.482-39.436-1.995-4.052-.158-8.133.396-12.2.624-.712.01-1.423.019-2.66-.35-6.463-1.043-12.388-1.85-18.34-2.322-4.314-.343-8.664-.244-12.998-.343"/><path fill="#e2ddcb" d="M271.971 627.14c-4.363-1.062-8.726-2.124-13.578-3.547-3.1-1.123-5.708-1.886-8.393-2.994-3.05-1.765-6.024-3.183-9.155-4.912-6.887-4.119-14.175-7.205-20.228-11.888-11.59-8.967-23.004-18.299-33.517-28.485-11.44-11.085-20.214-24.34-26.106-39.665-.662-1.121-1.32-1.89-2.13-2.998a136 136 0 0 1-1.875-8.036c-2.228-5.884.79-7.346 5.502-8.442 4.275-.995 8.438-2.777 12.394-4.73 2.729-1.348 4.89-1.576 7.123.8.005.246.01.738.029 1.061.664 1.115 1.31 1.907 1.99 3.037.686 1.774 1.336 3.21 1.987 5.018 1.327 2.13 2.653 3.887 4.02 5.996 2.016 3.45 3.992 6.546 6 9.984 1.016 1.11 1.998 1.88 3.318 2.704 3.745 2.211 6.986 4.712 10.59 6.465 14.045 6.834 34.85 3.976 47.564-7.336 6.774-6.027 11.311-13.306 13.978-21.611 1.857-5.783 5.6-7.294 10.733-7.528 2.49-.113 4.991.037 7.484-.042 11.864-.374 23.248-2.297 33.919-8.157 9.689-5.32 16.759-12.712 21.202-22.691.35-.784-.544-2.121-.86-3.201 3.382-3.42 7.25-5.648 12.633-4.96 4.04 8.452 7.734 16.858 11.023 25.739-.807 1.974-1.417 3.452-1.572 4.977-.452 4.439-.66 8.902-1.074 13.345-1.125 12.09-6.976 22.109-16.216 29.159-9.145 6.978-19.836 11.906-29.686 17.995-4.617 2.853-9.107 6.033-13.183 9.603-3.399 2.977-5.25 7.331-3.335 11.712 1.806 4.129 5.997 4.884 10.247 4.478 1.474-.141 3.136-.009 4.373-.653 6.694-3.489 13.545-6.778 19.856-10.882 16.184-10.525 27.96-24.592 33.142-43.576 1.622 1.44 3.244 2.879 4.549 4.75-1.112 1.78-2.253 3.038-2.634 4.494-.95 3.64-1.207 7.484-2.362 11.045-3.77 11.62-8.077 22.951-15.645 32.862-9.521 12.468-19.954 23.934-33.476 32.08-7.287 4.39-15.054 7.982-22.605 11.934-7.66-.376-15.319-.752-23.502-1.44-1.191-.695-1.857-1.08-2.524-1.464"/><path fill="#ddcab1" d="M298.295 630.334c7.253-4.242 15.02-7.833 22.307-12.224 13.522-8.146 23.955-19.612 33.476-32.08 7.568-9.911 11.876-21.242 15.645-32.862 1.155-3.56 1.412-7.404 2.362-11.045.38-1.456 1.522-2.713 2.694-4.16 2.715.287 5.054.673 8.02 1.312 5.013.034 7.978-2.007 9.122-6.38 0 0 .051-.438.411-.703.772-.94 1.185-1.613 1.597-2.287 0 0 .038-.447.395-.715.774-.94 1.19-1.612 1.606-2.283.276-.776.552-1.552 1.299-2.656.859-1.024 1.248-1.72 1.636-2.416.62-1.086 1.242-2.172 2.367-3.575 4.395-3.58 8.6-6.014 13.952-5.422.7.021 1.4.042 2.647.357 1.417.472 2.29.65 3.359 1.094 2.405 1.07 4.613 1.875 6.821 2.68 0 0 .485.034.784.404 4.67 3.49 9.309 6.302 13.331 9.82 3.64 3.183 6.608 7.136 9.871 10.75-5.629 8.48-10.756 17.357-17.034 25.327-5.833 7.405-12.78 13.956-19.44 20.68-9.769 9.863-21.67 16.665-33.465 23.809-12.336 7.471-25.524 12.61-39.013 17.02-8.092 2.645-16.697 3.947-25.174 5.105-6.341.866-12.846.536-19.576.45"/><path fill="#ddd7c2" d="M182.004 511.998c-2.229-2.131-4.39-1.903-7.12-.555-3.955 1.953-8.118 3.735-12.393 4.73-4.712 1.096-7.73 2.558-5.861 8.37-.89-.8-1.17-2.177-2-3.001-1.374-1.367-3.087-3.355-4.683-3.38-9.738-.146-18.438-2.813-25.902-9.18-.792-.964-1.584-1.929-2.71-3.257-.323-.785-.314-1.205-.304-1.625.013-2.053.025-4.107.39-6.676 1.066-2.174 1.777-3.833 2.489-5.491.284-1.093.568-2.186 1.338-3.654.9-1.349 1.312-2.323 1.725-3.297 0 0 .023.018.324-.132 1.07-1.741 1.84-3.332 2.61-4.923.027-.423.055-.846.108-1.586.917-1.178 2.38-1.913 2.603-2.921.985-4.462 3.786-3.432 6.427-2.243 10.783 4.855 21.638 9.577 32.214 14.854 7.936 3.96 15.636 8.502 20.352 16.651-2.052.856-3.794 1.217-5.46 1.8-2.564.897-4.801 2.15-4.147 5.516"/><path fill="#c5bb9e" d="M370.14 532.49c-5.152 19.373-16.928 33.44-33.112 43.965-6.31 4.104-13.162 7.393-19.856 10.882-1.237.644-2.9.512-4.373.653-4.25.406-8.44-.35-10.247-4.478-1.916-4.38-.064-8.735 3.335-11.712 4.076-3.57 8.566-6.75 13.183-9.603 9.85-6.09 20.54-11.017 29.686-17.995 9.24-7.05 15.091-17.07 16.216-29.159.413-4.443.622-8.906 1.074-13.345.155-1.525.765-3.003 1.56-4.6.445.608.498 1.316.536 2.699.524 1.241 1.061 1.806 1.599 2.372.135 1.943.27 3.887.372 6.599.284 1.59.601 2.41.919 3.232.013 4.024.026 8.049-.25 12.744-.37 1.592-.45 2.513-.53 3.434-.047 1.307-.095 2.615-.112 4.312"/><path fill="#dfd7ca" d="M216.28 659.084c10.3-.436 20.862-.582 31.424-.626 14.58-.06 29.16-.034 43.739-.062 5.962-.011 11.925-.067 18.213.138-4.483.955-9.285 2.22-14.102 2.283-18.43.24-36.867.239-55.298.024-7.91-.092-15.81-.926-23.976-1.757M71.178 559.306c.66.932 1.69 2.334 1.709 3.748.16 12.244-.01 24.494.21 36.736.23 12.842 1.644 25.415 10.802 35.944-6.15-1.853-7.841-7.814-9.438-12.83-2.111-6.63-3.005-13.836-3.239-20.834-.471-14.082-.143-28.19-.044-42.764M452.346 537.983c-3.612-3.654-6.58-7.607-10.22-10.79-4.022-3.518-8.661-6.33-13.09-9.787 4.953 2.661 10.45 5.08 14.868 8.784 7.523 6.309 15.829 12.063 19.972 21.604 4.08 9.397 4.301 18.716-.497 28.132.116-3.498.414-7.12 1.105-10.667 1.919-9.84-2.457-21.889-12.138-27.276M99.707 502.568c-4.182 2.153-8.814 3.764-13.093 6.038-13.521 7.187-16.503 20.078-15.487 33.368.365 4.77.425 9.565.39 14.673-.86-3.149-1.686-6.6-2.07-10.101-1.062-9.66-1.271-19.504 4.005-27.984 5.841-9.387 13.835-16.395 26.255-15.994M423.232 620.855c2.402-2.775 4.961-5.774 7.956-8.245 10.774-8.886 20.194-18.984 28.096-30.492 1.095-1.595 1.959-3.349 3.259-5.121-.943 2.868-1.784 6.121-3.56 8.739-9.498 13.995-21.374 25.664-35.751 35.12M324.277 657.361c5.728-1.773 11.79-3.1 17.724-4.853 13.216-3.905 26.37-8.023 39.77-11.825-2.51 1.6-5.11 3.436-8 4.263-15.551 4.455-31.172 8.671-46.784 12.912-.735.2-1.619-.15-2.71-.497M154.272 656.08c3.815-.564 7.896-1.118 11.948-.96 13.151.513 26.293 1.273 39.435 1.995.74.04 1.452.587 2.349 1.244a1456 1456 0 0 1-53.732-2.28M384.192 640.772c3.579-2.221 7.521-4.391 11.513-6.465 8.535-4.433 17.096-8.817 26.006-13.226-2.153 2.245-4.321 5.216-7.242 6.612-9.819 4.694-19.906 8.827-30.277 13.08M120.259 653.063c4.097-.235 8.447-.334 12.762.009 5.951.473 11.876 1.279 17.984 2.287-10.056-.424-20.283-1.194-30.746-2.297M89.985 642.412c8.694 4.562 18 7.893 28.039 9.95-10.307.085-20.259-1.614-28.04-9.95"/><path fill="#e2ddcb" d="M415.051 512.491c-5.22-.245-9.424 2.189-13.663 5.49 2.124-5.555 8.057-8.066 13.663-5.49"/><path fill="#dfd7ca" d="M120.638 504.063c.383.457.374.877.362 1.614-3.519-.542-7.036-1.4-10.775-2.565 3.192.099 6.606.506 10.413.95"/><path fill="#e2ddcb" d="M391.582 532.953c-.805 4.315-3.77 6.356-8.366 6.329 2.537-2.255 5.281-4.263 8.366-6.33"/><path fill="#dfd7ca" d="M427.953 516.627c-2.15-.463-4.358-1.268-6.76-2.586-.193-.513-.19-1.009-.19-1.009 2.297 1.084 4.594 2.168 6.95 3.595M314.263 658.809c2.037-.657 4.512-1.216 7.426-1.71-2.037.647-4.512 1.227-7.426 1.71"/><path fill="#f1edd8" d="M123.57 492.011q-.56 2.37-2.127 4.975.56-2.37 2.128-4.975M129.569 480.007c-.432 1.511-1.202 3.102-2.28 4.832.442-1.491 1.192-3.122 2.28-4.832M243.96 67.38c-1.106.3-2.294.275-3.735-.002 1.049-.275 2.351-.297 3.735.003M250.933 68.736c-1.137.214-2.312.074-3.724-.331 1.07-.185 2.379-.105 3.724.33M225.858 66.869c-.95.535-2.079.776-3.556.908.893-.473 2.134-.838 3.556-.908"/><path fill="#dfd7ca" d="M85.15 638.224c.962.424 1.908 1.2 2.915 2.293-.936-.436-1.934-1.188-2.915-2.293"/><path fill="#e2ddcb" d="M370.545 528.078c-.213-.821-.133-1.742.234-2.87.21.784.134 1.777-.234 2.87M371.277 511.806c-.563-.627-.88-1.448-1.118-2.623.508.574.935 1.501 1.118 2.623"/><path fill="#f1edd8" d="M126.63 485.04q-.106 1.372-1.233 2.93.105-1.373 1.233-2.93"/><path fill="#e2ddcb" d="M420.737 512.906c.267.126.263.622.26.87-.877.07-1.749-.109-2.816-.567.633-.33 1.462-.38 2.556-.303M398.56 521.923c-.083.608-.472 1.304-1.188 2.05.076-.62.48-1.291 1.188-2.05M395.616 526.972c-.102.606-.518 1.278-1.257 1.996.1-.612.521-1.272 1.257-1.996M393.615 529.973c-.098.606-.51 1.28-1.245 2.001.096-.612.513-1.273 1.245-2.001"/><path fill="#f1edd8" d="M255.95 70.39c-.698.113-1.486-.119-2.44-.63.672-.091 1.51.096 2.44.63M217.887 67.855c-.37.51-.873.775-1.657.928.32-.466.922-.819 1.657-.928"/><path fill="#e2ddcb" d="M369.799 501.847q-.893-.365-1.614-1.698.893.365 1.614 1.698"/><path fill="#d7cdb1" d="M182.008 512.243c-.658-3.612 1.58-4.864 4.143-5.761 1.666-.583 3.408-.944 5.499-1.456 7.418 4.89 7.666 13.804 12.235 20.204 2.99 4.188 5.094 9.301 11.755 10.067 1.774.796 3.087 1.243 4.4 1.69 8.134.065 15.837-1.31 23.006-6.84 1.428-.815 2.196-1.472 3.353-2.132 4.947-.064 7.494-2.85 9.634-6.489 4.483-7.62 5.057-15.969 4.945-24.484 4.203-.83 8.405-1.661 13.18-2.736 2.016-.276 3.459-.307 4.901-.338 21.644-5.075 44.142-7.099 64.53-18.005.69 1.059 1.582 2.396 1.233 3.18-4.443 9.98-11.513 17.371-21.202 22.691-10.67 5.86-22.055 7.783-33.92 8.157-2.492.079-4.993-.071-7.483.042-5.134.234-8.876 1.745-10.733 7.528-2.667 8.305-7.204 15.584-13.978 21.611-12.715 11.312-33.52 14.17-47.565 7.336-3.603-1.753-6.844-4.254-10.627-6.804a91 91 0 0 0-3.312-2.706c-1.976-3.097-3.952-6.194-5.997-9.988-1.376-2.473-2.684-4.247-3.991-6.022-.65-1.436-1.301-2.873-1.988-5-.694-1.464-1.351-2.236-2.008-3.007 0 0-.005-.492-.01-.738"/><path fill="#cfc6af" d="M195.997 75.219a27.5 27.5 0 0 1-6.676 4.251c-2.06-6.15-3.221-12.233-5.655-17.755-2.956-6.705-7.938-11.804-15.673-13.209-8.482-1.54-15.686 1.964-22.29 6.433-19.306 13.063-32.094 31.796-43.348 51.626-8.06 14.204-15.352 28.868-18.72 45.025-3.12 14.971-7.204 29.933-8.335 45.087-2.218 29.734.865 59.228 9.488 87.922 4.352 14.482 10.469 28.268 19.163 40.686 5.959 8.512 12.647 16.514 19.241 25.003 3.753 2.049 7.274 3.839 10.799 6.008l.018 2.65c-9.528-1.849-16.705-6.929-22.482-14.806-13.71-18.697-25.452-38.345-31.877-60.82-4.828-16.887-7.174-34.157-8.768-51.632-2.504-27.441.514-54.228 7.62-80.71 4.671-17.41 12.536-33.346 21.354-48.983 8.786-15.581 19.055-29.972 32.06-42.176 9.12-8.558 19.138-15.837 32.731-15.928 10.265-.07 16.905 5.279 21.797 13.31 2.659 4.363 4.268 9.357 6.484 14.004.668 1.402 1.784 2.59 3.07 4.014M242.044 512.981c-3.322-11.731-6.113-23.645-10.076-35.156-8.249-23.956-24.117-41.707-46.204-53.938-17.78-9.845-36.313-18.535-53.201-29.717-11.73-7.766-21.597-18.531-31.638-28.612-10.759-10.8-17.932-24.12-23.604-38.19-.567-1.407.251-3.373.427-5.079 1.24 1.222 3.014 2.22 3.64 3.701 8.748 20.675 21.553 38.249 38.7 52.842 17.838 15.18 38.075 26.291 59.005 36.373 22.25 10.717 40.732 25.503 51.652 48.325 7.267 15.188 11.83 31.246 14.762 48.095-1.395.715-2.429 1.036-3.463 1.356"/><path fill="#d0c8b1" d="M220.03 536.52c-1.303.02-2.616-.427-4.007-1.244.627-12.757-.53-24.952-5.128-36.529-4.756-11.975-12.183-22.125-23.325-28.935-14.429-8.817-29.391-16.789-43.589-25.954-18.388-11.87-34.637-26.344-47.151-44.469-5.354-7.754-9.597-16.277-14.325-24.462-.498-.862-1.261-1.834-1.191-2.698.105-1.305.836-2.558 1.302-3.834 1.013.726 2.432 1.232 2.964 2.217 1.643 3.043 2.781 6.357 4.41 9.408 10.559 19.778 25.735 35.373 42.761 49.83 15.945 13.539 34.906 21.656 52.234 32.643 21.907 13.89 33.756 33.613 35.001 59.569.224 4.653.034 9.326.044 14.457"/><path fill="#d6cfb8" d="M221.851 411.152c-.314-.433-.627-.866-.696-1.843.214-1.633.316-2.743.133-3.804-1.413-8.215-2.68-16.463-4.385-24.618-2.092-10.006-4.567-19.932-6.879-30.261 2.992-3.453 5.986-6.537 8.981-9.218.647 4.023 1.554 7.62 1.889 11.268 1.143 12.464 2.199 24.939 3.059 37.425.503 7.309-2.166 14.902 1.825 21.86-.431.005-.604.006-.914-.272-1.096-.364-2.054-.45-3.013-.537"/><path fill="#cac0a9" d="M225.002 411.967c.172 0 .345 0 1.072.154 1.94 1.578 3.372 2.958 4.702 4.43 3.112 3.449 6.176 6.94 9.259 10.415 3.556 7.373 7.211 14.7 10.612 22.144 1.141 2.498 1.633 5.293 2.437 8.743.293 1.726.4 2.766.891 3.57.742 1.216 1.752 2.269 2.648 3.39l1.408-3.73c4.836-6.536 9.671-13.072 14.97-19.72.7.213.935.536 1.17.86-2.048 3.098-4.27 6.098-6.107 9.317-3.138 5.503-6.035 11.144-9.461 17.174-1.511 2.392-2.594 4.336-3.676 6.28-.01-.706-.019-1.411-.023-2.804-.596-1.193-1.195-1.698-1.795-2.203-2.326-10.946-5.296-21.703-11.455-31.19-4.89-7.535-10.236-14.775-15.55-22.8-.48-1.78-.791-2.905-1.102-4.03M210.026 350.994c2.31 9.96 4.785 19.887 6.877 29.893 1.706 8.155 2.972 16.403 4.385 24.618.183 1.061.081 2.171-.176 3.531-2.645-1.836-4.973-3.981-7.372-6.042-2.125-1.826-4.33-3.558-6.37-5.769.673-.727 1.216-1.018 2.094-1.254 1.856.894 3.377 1.733 5.313 2.803.106-1.949.184-3.369.48-4.952-.204-.722-.627-1.281-1.096-2.289-.85-6.283-1.456-12.152-2.505-17.942-1.369-7.563-3.088-15.064-4.279-22.592zM134.344 359.126c-.34-.936-.345-1.694.02-2.814 1.787.027 3.206.417 4.68 1.124.744.703 1.432 1.088 2.52 1.477 5.076 1.394 9.751 2.785 14.48 4.497.74.715 1.427 1.109 2.478 1.508 1.732.412 3.098.82 4.522 1.542.739.696 1.42 1.079 2.457 1.508 1.732.423 3.109.8 4.543 1.488.73.702 1.402 1.092 2.42 1.488 1.405.4 2.465.794 3.584 1.513 1.377 1.055 2.695 1.785 4.338 2.652 3.75 2.095 7.177 4.053 10.654 6.32.7.728 1.349 1.146 2.205 1.802 1.388 1.06 2.569 1.882 3.886 3.005 1.055.786 1.974 1.273 3.022 2.008.453.709.775 1.169.691 1.67-.95.095-1.494.148-2.038.2-5.377-3.33-10.754-6.659-16.513-10.394a25 25 0 0 0-2.385-1.675c-7.413-3.273-14.826-6.545-22.624-10.307-1.074-.875-1.762-1.26-2.451-1.646-4.027-1.237-8.076-2.409-12.074-3.735-2.73-.905-5.39-2.027-8.415-3.23M260.976 496.64c.114 8.917-.46 17.266-4.943 24.886-2.14 3.638-4.687 6.425-10.004 6.483-1.495-.009-2.232-.014-2.97-.02-.018-.75-.036-1.499.273-2.76 1.422-.742 2.517-.973 3.612-1.203 0 0 .046-.017.086.298.686.11 1.332-.095 1.978-.3.096-.33.283-.598 1.105-.954.99-.801 1.436-1.45 1.881-2.1.906-1.783 1.812-3.566 3.188-5.703.602-1.318.733-2.284.865-3.249.006-.446.012-.891.327-1.71.42-1.015.533-1.658.646-2.3-.002-4.365-.004-8.73.264-13.78-.195-1.87-.66-3.056-1.124-4.242.107-2.25.213-4.501.58-7.103 1.234.907 2.21 2.165 2.955 3.966-.038 1.418.153 2.292.344 3.166.312 2.074.623 4.15.937 6.625"/><path fill="#cfc6af" d="M198.9 390.448c.45-.386.994-.44 2.294-.516 3.149 1.98 5.542 3.982 7.935 5.985-.543.29-1.086.58-1.915.99-2.932-1.963-5.576-4.045-8.315-6.46M246.958 523.584c-1.11.672-2.204.903-3.613 1.27-.503-1.048-.693-2.232-.27-3.703 1.361-2.229 2.11-4.171 2.859-6.114.346 2.701.692 5.403 1.024 8.547"/><path fill="#cac0a9" d="M245.953 514.66c-.768 2.32-1.517 4.262-2.636 6.266-.68-2.332-.99-4.725-1.287-7.532 1.048-.733 2.082-1.054 3.44-1.37.382.756.442 1.507.483 2.635"/><path fill="#cfc6af" d="M254.718 475.163c1.291-2.113 2.374-4.057 3.81-6.087.338 2.666.323 5.419.001 8.52-1.112.048-1.918-.251-2.724-.55-.432-.571-.863-1.142-1.087-1.883M224.864 411.689c.449 1.403.76 2.528 1.092 4.006-1.236-1.083-2.494-2.519-3.928-4.249.782-.208 1.74-.121 2.836.243"/><path fill="#cac0a9" d="M255.843 477.432c.768-.087 1.574.212 2.694.549-.081 1.078-.476 2.118-1.204 3.328-.706-1.051-1.08-2.27-1.49-3.877"/><path fill="#cfc6af" d="M256.115 490.35c.51.822.974 2.008 1.183 3.413-.58-.87-.903-1.96-1.183-3.413M255.778 512.217c.137.766.006 1.732-.448 2.74-.155-.818.012-1.68.448-2.74M243.032 528.323c.765-.328 1.502-.323 2.608-.31-.398.662-1.166 1.319-2.286 1.981-.352-.441-.351-.889-.322-1.67M251.676 521.02q-.19.902-1.34 1.941.19-.9 1.34-1.94M248.67 524.017c-.308.212-.954.417-1.646.33.405-.306.856-.321 1.645-.33M253.119 470.305c.59.187 1.19.692 1.786 1.532-.595-.181-1.186-.698-1.786-1.532M202.119 72.36c-.294.604-.923 1.09-1.866 1.54.3-.579.915-1.12 1.866-1.54M179.98 378.356c.595.112 1.263.535 1.978 1.28-.604-.108-1.254-.538-1.977-1.28M256.774 508.173c.133.477.02 1.12-.37 1.803-.144-.52-.01-1.078.37-1.803M154.924 366.397c.597.08 1.286.466 2.031 1.168-.61-.077-1.275-.47-2.031-1.168"/><path fill="#cec4ad" d="M292.026 96.988c-1.374-1.366-2.748-2.733-4.186-4.415.675-3.814 1.466-7.302 2.143-10.811 1.895-9.826 4.28-19.344 10.789-27.468 8.786-10.967 15.47-12.576 29.51-9.1 12.98 3.214 22.877 12.122 31.194 22.239 8.09 9.839 16.14 19.887 22.706 30.752 6.916 11.445 12.776 23.671 17.823 36.074 12.306 30.238 15.623 62.042 13.79 94.367-.69 12.184-2.542 24.389-4.932 36.37-4.2 21.054-10.701 41.292-22.57 59.607-10.684 16.487-23.375 30.955-39.135 42.65-12.367 9.177-26.517 14.646-40.908 19.843-15.694 5.668-31.071 12.244-46.429 18.795-4.948 2.11-9.395 5.393-14.449 7.725-.378-1.815-.378-3.216-.097-4.867.097-7.416-.09-14.583.113-21.748 1.415-.012 2.441-.023 3.511.433.261 6.412.48 12.357.717 18.83 9.747-4.928 17.862-9.791 26.54-13.244 13.663-5.437 27.758-9.777 41.568-14.86 11.206-4.125 21.934-9.206 30.653-18.173 3.903-2.985 7.723-5.671 10.977-8.923 15.048-15.037 26.768-32.51 34.87-52.061 4.434-10.703 7.3-22.19 9.688-33.571 2.469-11.77 3.956-23.8 5.026-35.791.928-10.39 1.778-21.006.67-31.308-1.595-14.849-4.4-29.642-7.777-44.207-3.979-17.157-11.558-33.054-20.517-48.145-5.52-9.299-11.953-18.079-18.297-26.86-8.746-12.11-19.01-23.044-33.004-28.67-9.218-3.705-16.919-4.5-25.493 4.28-5.771 5.911-8.724 12.863-10.484 20.499-1.655 7.18-2.698 14.5-4.01 21.758"/><path fill="#e1ddcb" d="m246.993 409 .003 4.623c-2.217 4.526-4.435 8.63-6.808 13.038-3.236-3.17-6.3-6.661-9.412-10.11-1.33-1.472-2.762-2.852-4.443-4.435-4.546-7.113-1.877-14.706-2.38-22.015-.86-12.486-1.916-24.961-3.06-37.425-.334-3.649-1.241-7.245-1.73-11.577 4.236-6.47 8.315-12.228 12.484-18.112 4.141 5.714 8.237 11.365 12.055 17.271-1.085 6.758-2.275 13.242-2.602 19.77-.406 8.09-.875 16.313.118 24.3 1.036 8.335 3.778 16.457 5.775 24.672"/><path fill="#d0c8b1" d="M279.085 493.614c-1.468.385-2.91.416-4.678.412 4.35-12.675 13.119-22.114 24.165-29.162 11.446-7.303 23.704-13.322 35.319-20.376 17.409-10.573 32.956-23.504 45.629-39.51 5.797-7.324 10.566-15.467 15.7-23.305.82-1.25 1.108-2.847 1.642-4.284l3.078 2.002c-.387 1.986-.296 4.24-1.237 5.915-7.767 13.823-17.177 26.377-28.784 37.291-15.576 14.645-32.97 26.59-52.123 36.01-12.469 6.133-23.683 13.974-32.722 24.58-2.494 2.926-4.002 6.692-5.989 10.427"/><path fill="#cac0a9" d="M286.004 429.011c2.065-1.327 4.13-2.655 6.87-4.038 1.164-.662 1.651-1.27 2.138-1.877 2.747-1.288 5.494-2.576 8.887-4.023 1.134-.77 1.623-1.381 2.111-1.992 2.725-1.367 5.45-2.733 8.862-4.132 1.171-.642 1.655-1.252 2.139-1.862 1.71-.71 3.418-1.42 5.822-2.152 1.188-.634 1.683-1.246 2.177-1.857 2.06-1.016 4.118-2.033 6.887-3.1 1.844-1.002 2.978-1.953 4.112-2.905 0 0 .46-.07 1.013-.11 1.033-.635 1.513-1.23 1.993-1.825 2.424-1.303 4.848-2.606 7.91-4.065 1.12-.774 1.602-1.393 2.083-2.012 4.132-2.901 8.264-5.802 13.002-8.856 1.113.22 1.62.594 2.126.967-7.38 5.573-14.46 11.615-22.226 16.583-7.304 4.67-15.332 8.208-23.734 12.292-1.189.666-1.686 1.285-2.183 1.903-2.717 1.36-5.434 2.72-8.844 4.109-1.181.641-1.67 1.255-2.158 1.869-4.351 2.532-8.66 5.143-13.078 7.55-1.506.822-3.291 1.132-5.387 1.64-.438-.036-.527-.12-.526-.45z"/><path fill="#cfc6af" d="M382.943 363.842c2.98-4.704 6.104-9.323 8.9-14.133 3.393-5.837 6.51-11.836 9.745-17.766.714-1.31 1.243-2.778 2.198-3.879.49-.566 2.094-.946 2.548-.589.738.58 1.58 2.143 1.281 2.76-6.188 12.806-12.33 25.666-23.435 35.594-.824-.753-1.03-1.37-1.237-1.987"/><path fill="#cac0a9" d="M382.647 364.024c.503.435.709 1.052 1.193 1.854a89.4 89.4 0 0 1-9.75 10.81c-.754-.951-.935-1.846-1.116-2.74 3.125-3.248 6.25-6.496 9.673-9.924"/><path fill="#cfc6af" d="M274.502 442.135c-.566-.236-.801-.56-1.298-1.032 1.791-2.175 3.844-4.2 6.423-5.988.862.497 1.198.757 1.534 1.018-2.11 1.971-4.22 3.943-6.66 6.002"/><path fill="#cac0a9" d="M281.497 436.06c-.672-.188-1.008-.448-1.513-.987 1-1.464 2.17-2.65 3.985-3.96 1.108-.12 1.569-.117 2.03-.114 0 0 .09.083.138.125-1.403 1.65-2.854 3.257-4.64 4.936"/><path fill="#cfc6af" d="M364.466 385.129c-.836-.33-1.343-.704-2.175-1.112 1.116-1.284 2.557-2.534 4.577-3.743.78.652.981 1.263 1.183 1.875-1.085.979-2.17 1.958-3.585 2.98M372.645 373.997c.51.845.691 1.74 1.147 2.85-.528 1.178-1.33 2.14-2.507 2.809-1.304-.737-2.235-1.18-3.166-1.625 1.399-1.328 2.797-2.656 4.526-4.034M257.78 461.214c-.218 1.113-.688 2.356-1.157 3.6-.896-1.122-1.906-2.175-2.648-3.39-.491-.805-.598-1.845-.884-3.178.822.707 1.559 1.904 2.527 2.87.357.357 1.258.169 2.162.098"/><path fill="#cac0a9" d="M367.855 378.177c1.195.298 2.126.742 3.111 1.528-.727 1-1.509 1.655-2.603 2.378-.514-.546-.715-1.157-1.19-1.952-.043-.725.188-1.266.682-1.954"/><path fill="#cfc6af" d="M335.665 401.09c-.79.935-1.924 1.886-3.415 2.846.786-.937 1.928-1.883 3.415-2.846M260.272 489.818c-.424-.677-.615-1.55-.564-2.612.428.68.612 1.548.564 2.612M324.693 407.098c-.177.591-.672 1.203-1.5 1.82.173-.596.678-1.198 1.5-1.82M316.692 411.102c-.165.595-.649 1.205-1.46 1.833q.246-.892 1.46-1.833M316.31 415.922c.18-.59.677-1.209 1.512-1.83-.174.598-.685 1.2-1.512 1.83M305.692 417.1c-.17.592-.659 1.203-1.477 1.828.166-.595.662-1.202 1.477-1.829M305.31 421.909c.17-.595.658-1.209 1.478-1.835-.166.597-.663 1.206-1.479 1.835M294.694 423.113c-.169.59-.656 1.198-1.47 1.82.166-.592.66-1.198 1.47-1.82M286 430.667c-.462.329-.923.326-1.732.307.135-.639.616-1.262 1.417-1.925.318.404.317.845.315 1.618M338.698 399.143c-.163.59-.643 1.185-1.444 1.803.162-.584.644-1.191 1.444-1.803M348.69 393.086c-.163.594-.644 1.213-1.454 1.85.16-.597.648-1.21 1.454-1.85"/><path fill="#cec4ad" d="M284.83 88.886c-.653-.129-1.282-.615-1.986-1.404.62.147 1.314.597 1.986 1.404M273.963 79.614c-.659.008-1.376-.327-2.229-.945.633.013 1.402.307 2.229.945"/><path fill="#ddd6c2" d="M292.049 97.29c1.289-7.56 2.332-14.88 3.987-22.06 1.76-7.636 4.713-14.588 10.484-20.498 8.574-8.78 16.275-7.986 25.493-4.28 13.993 5.625 24.258 16.56 33.004 28.668 6.344 8.782 12.777 17.562 18.297 26.861 8.959 15.091 16.538 30.988 20.517 48.145 3.377 14.565 6.182 29.358 7.778 44.207 1.107 10.302.257 20.918-.67 31.308-1.07 11.991-2.558 24.021-5.027 35.79-2.388 11.382-5.254 22.869-9.689 33.572-8.1 19.552-19.821 37.024-34.87 52.061-3.253 3.252-7.073 5.938-10.986 8.517-.277-1.19-.275-2.027-.107-2.83 1.564-7.491 4.051-14.918 4.535-22.475.767-11.984.223-24.053.17-36.086-.007-1.8-.258-3.617-.57-5.395-2.1-11.956-4.246-23.904-6.377-35.855 3.843-2.107 8.032-3.78 11.412-6.467 2.406-1.913 2.503-4.48-1.726-5.521-4.17-1.028-6.279-4.001-5.611-8.5 16.665-3.754 22.527-11.162 17.395-22.538-1.478 1.056-2.754 2.419-4.316 2.97-2.02.714-4.96 1.774-6.247.878-1.653-1.152-2.665-4.045-2.852-6.28-.257-3.08.765-6.243.802-9.375.16-13.431-11.336-21.94-24.36-18.501-2.934.775-6.246.113-9.384.112.283-3.597.15-7.293.967-10.765.825-3.505 2.593-6.789 4.378-10.628.487-2.073.545-3.686.602-5.3-.024-2.717-.048-5.433.206-8.787-.127-1.524-.533-2.41-.939-3.296-.146-1.041-.292-2.082-.177-3.704-.36-2.157-.982-3.733-1.604-5.31-.16-.42-.32-.84-.287-1.75-.197-1.07-.589-1.652-.98-2.233-.513-1.593-1.027-3.187-1.49-5.49-.512-1.304-1.075-1.897-1.637-2.49-.404-.695-.808-1.39-1.244-2.73-.652-1.181-1.271-1.716-1.89-2.25-3.166-2.864-6.33-5.727-9.82-9.137-1.106-.888-1.888-1.23-2.67-1.573-.348-.043-.696-.087-1.35-.578-1.096-.762-1.887-1.077-2.678-1.393-.976-.365-1.952-.731-3.25-1.554-2.256-2.242-4.19-4.026-6.123-5.81-.358-.45-.715-.899-1.096-1.65"/><path fill="#ddd7c2" d="M122.961 350.028c-6.363-8.23-13.051-16.23-19.01-24.743-8.694-12.418-14.811-26.204-19.163-40.686-8.623-28.694-11.706-58.188-9.488-87.922 1.131-15.154 5.214-30.116 8.335-45.087 3.368-16.157 10.66-30.821 18.72-45.025 11.254-19.83 24.042-38.563 43.348-51.626 6.604-4.469 13.808-7.973 22.29-6.433 7.735 1.405 12.717 6.504 15.673 13.21 2.434 5.521 3.595 11.605 5.329 17.866-.376.785-.76 1.144-1.77 1.515-1.159.64-1.693 1.266-2.227 1.893-.41.322-.82.644-1.827 1.043-1.111.729-1.626 1.38-2.14 2.033-12.838 13.095-19.433 29.053-22.122 46.993-.398 2.655-2.645 5.692-4.922 7.296-11.044 7.782-19.215 22.131-4.953 36.192 3.298 3.25 6.4 6.7 9.938 10.42-1.422 2.227-2.81 4.638-4.423 6.889-8.345 11.645-8.634 23.675-2.044 36.183 1.457 2.765 2.793 5.7 3.52 8.716.813 3.383-.628 5.535-4.457 6.34-4.845 1.02-9.753 2.252-14.268 4.227-10.635 4.652-14.772 18.53-8.642 28.366 1.06 1.701 3.084 2.802 4.978 4.646-.67 4.296-1.893 8.082-2.59 11.963-1.66 9.24-3.206 18.504-4.546 27.795-1.34 9.289-2.372 18.622-3.539 27.936"/><path fill="#f1edd7" d="M347.64 256.872c2.51 12.019 4.656 23.967 6.755 35.923.312 1.778.563 3.595.57 5.395.053 12.033.597 24.102-.17 36.086-.484 7.557-2.971 14.984-4.535 22.474-.168.804-.17 1.642-.237 2.87-8.365 9.334-19.093 14.415-30.299 18.54-13.81 5.083-27.905 9.423-41.569 14.86-8.677 3.453-16.792 8.316-26.539 13.244-.238-6.473-.456-12.418-.674-19.27.001-3.275.003-5.642.256-8.184.116-1.058-.02-1.942-.146-3.286 1.326-8.825 2.146-17.306 4.085-25.522 2.614-11.077 6.294-21.898 9.107-32.934 1.327-5.204 1.7-10.65 2.6-16.29.445-.786.796-1.27 1.3-1.456 4.325 3.54 8.358 6.983 12.697 9.984 8.297 5.738 16.792 11.187 25.159 16.825 9.079 6.119 18.14 12.23 22.707 22.912.616 1.442 2.67 2.269 4.057 3.38-.035-1.666.413-3.532-.182-4.966-4.325-10.432-12.225-17.644-21.845-23.04-8.54-4.789-8.497-4.597-5.735-14.145 1.93-6.67 3.447-13.459 5.527-20.316.737-1.15 1.511-2.23 1.39-3.2-.735-5.888 1.437-10.7 5.143-15.024.742.042 1.485.084 2.634.606 1.166.813 1.925 1.145 2.683 1.478l6.41 8.603c3.745-5.641 6.007-11.07 4.244-17.788-1.89-7.2-8.16-8.876-14.622-11.406 2.13-2.531 3.63-4.675 5.484-6.45 5.37-5.14 9.47-4.483 12.88 2.103 2.27 4.383 5.178 7.68 10.865 7.994M123.192 350.288c.936-9.574 1.969-18.907 3.308-28.196 1.34-9.291 2.886-18.556 4.546-27.795.697-3.88 1.92-7.667 2.936-11.881.662-2.27 1.13-4.23 1.954-6.025 2.39-5.21 5.975-7.046 11.311-4.887 5.194 2.102 10.021 5.111 15.418 8.124 1.042.418 1.676.434 2.31.45 1.086-.02 2.17-.04 3.875.27 1.482 3.117 2.346 5.906 3.2 9.158.005 5.813.021 11.164.014 16.936-1.027 4.182.542 8.97-4.365 11.169-2.563 1.148-5.166 2.233-7.634 3.563-8.66 4.666-17.105 9.664-22.71 18.121-.644.97-.341 2.568-.477 3.874 1.233-.434 2.74-.56 3.644-1.364 1.96-1.744 3.306-4.298 5.441-5.702 8.992-5.91 18.243-11.425 27.28-17.269 7.904-5.11 15.606-10.535 23.52-15.631.99-.639 2.726-.122 4.113.154.005.687.014 1.08-.317 1.594-.695 1.436-1.052 2.75-1.462 4.514-.025 3.473.002 6.496-.004 9.857.302 1.11.638 1.88.967 3.048.713 3.799 1.435 7.202 2.137 10.921.554.838 1.128 1.362 1.704 2.302.417 3.41.832 6.404 1.207 9.733.294 1.106.628 1.875.969 2.966.312 1.117.617 1.912.922 2.708 1.569 7.527 3.288 15.028 4.657 22.591 1.049 5.79 1.655 11.659 2.467 18.238.31 1.215.613 1.686.916 2.157l-.262 4.788c-1.936-1.07-3.457-1.91-5.313-2.803-2.728-2.057-5.121-4.06-7.864-6.08-.672-.478-.994-.938-1.507-1.99-1.16-1.05-2.129-1.507-3.098-1.965-1.181-.823-2.362-1.645-3.803-3.022-.907-.967-1.556-1.38-2.204-1.794-3.425-1.958-6.851-3.916-10.673-6.341-1.706-1.195-3.016-1.92-4.327-2.647-1.06-.394-2.119-.789-3.603-1.496a64 64 0 0 0-2.398-1.491c-1.377-.377-2.754-.754-4.573-1.482a42 42 0 0 0-2.427-1.516c-1.367-.408-2.733-.817-4.557-1.533-1.118-.714-1.779-1.12-2.44-1.525-4.675-1.39-9.35-2.782-14.515-4.481a207 207 0 0 0-2.487-1.49c-1.418-.39-2.837-.78-4.629-1.185a186 186 0 0 1-11.167-5.645"/><path fill="#dec5aa" d="M205.134 215.94c-3.077-4.633-6.74-8.987-9.106-13.958-4.697-9.87-8.687-20.076-12.953-30.15-1.609-3.798-.318-6.007 3.446-7.761 9.212-4.294 15.316-11.411 17.841-21.395 4.025 3.337 7.98 6.77 12.096 9.996 6.644 5.209 14.609 5.862 22.628 6.339 7.427.441 14.843 1.054 22.263 1.598.16.011.316.099.474.153 11.243 3.866 15.142 10.576 11.662 21.804-2.196 7.086-5.578 13.803-8.858 21.096-.762 1.131-1.092 1.852-1.423 2.573-.32 1.047-.642 2.095-1.446 3.487-5.944 5.554-11.015 11.288-17.027 15.756-3.113 2.313-7.981 3.533-11.904 3.235-9.373-.71-18.187-3.604-24.774-11.068-.708-.802-1.934-1.148-2.919-1.706"/><path fill="#e0dbc9" d="M316.725 271.502c-3.369 4.555-5.54 9.366-4.806 15.254.121.97-.653 2.05-1.441 2.847-1.07-.7-1.712-1.17-2.354-1.64-.705 1.496-1.602 2.932-2.08 4.496-2.35 7.672-4.587 15.378-7.113 23.915-1.832-.894-3.797-1.536-5.395-2.688-8.557-6.166-17.022-12.46-25.674-19.002-1.691-1.123-3.227-1.951-4.835-3.086-.721-.728-1.369-1.151-2.293-1.81-1.242-3.374-2.214-6.51-3.172-9.651-2.859-9.381-5.712-18.763-8.333-28.411 4.118-3.16 8.254-5.777 11.8-9.036 2.731-2.51 4.72-5.828 7.04-8.787.29.157.567.344.87.466 8.997 3.639 12.823 10.636 15.707 19.779 3.348 10.614 12.504 15.92 23.78 16.778 2.647.201 5.307.235 8.299.576"/><path fill="#dfd8c6" d="M172.06 289.043c-.864-2.789-1.728-5.578-2.806-8.645 12.125-5.129 16.442-14.332 13.86-27.112 10.188 1.716 13.997 8.284 13.247 22.482 4.485-1.081 6.016-4.523 6.6-8.288.99-6.363-.433-12.162-5.024-17.008-7.536-7.954-7.631-13.402.098-22.27 1.733 1.777 3.02 3.589 3.873 5.585 2.828 6.61 4.824 13.758 12.062 17.73-.354 4.029-.443 7.668-1.13 11.19a801 801 0 0 1-7.203 33.168c-3.592-1.341-5.383.384-7.063 3.114-7.72 4.522-15.104 8.967-23.582 14.07 0-3.502 0-5.278.006-7.505.257-3.4 1.108-6.464.58-9.267-.476-2.517 1.522-6.792-3.518-7.244"/><path fill="#c3a68d" d="M213.96 251.074c-7.228-3.53-9.224-10.676-12.052-17.287-.854-1.996-2.14-3.808-3.593-5.779 1.958-3.84 4.28-7.605 6.711-11.72 1.093.209 2.319.555 3.027 1.357 6.587 7.464 15.4 10.358 24.774 11.068 3.923.298 8.79-.922 11.904-3.235 6.012-4.468 11.083-10.202 16.877-15.46.749 4.678.691 9.512 1.744 14.092.739 3.217 2.99 6.088 4.64 9.453-2.242 3.3-4.232 6.617-6.963 9.127-3.546 3.26-7.682 5.876-12.147 8.997-1.737-.865-3.044-1.836-4.014-3.073-2.027-2.585-3.723-5.437-5.833-7.946-2.966-3.526-5.601-3.324-8.434.326-1.43-.016-2.47-.033-3.522-.421-.029-1.115-.045-1.859-.102-2.897-.702-.115-1.362.064-2.371.295-2.39 2.942-4.35 5.892-6.5 8.697-1.222 1.592-2.754 2.945-4.146 4.406"/><path fill="#cec4ad" d="M293.14 99.284c1.939 1.44 3.872 3.224 5.836 5.35-1.927-1.44-3.884-3.223-5.836-5.35M328.794 157.27c.227 1.369.17 2.982-.216 4.685-.241-1.421-.154-2.93.216-4.685M326.45 136.26c.736 1.245 1.357 2.82 1.719 4.582-.785-1.293-1.31-2.772-1.72-4.582M328.248 145.273c.503.555.91 1.441 1.076 2.513-.55-.603-.861-1.393-1.076-2.513"/><path fill="#dfd8c6" d="M164.805 279.835c-.464.227-1.098.211-1.804-.045.497-.226 1.065-.212 1.804.045"/><path fill="#e0dbc9" d="M322.258 273.512c-.637-.029-1.396-.36-2.216-1.027.657.018 1.376.371 2.216 1.027"/><path fill="#c3a68d" d="M263.503 206.128c.032-.614.362-1.335 1.01-2.13-.027.624-.37 1.324-1.01 2.13"/><path fill="#cec4ad" d="M322.153 124.282c.58.276 1.142.869 1.64 1.813-.596-.264-1.127-.88-1.64-1.813M325.226 132.24c.462.286.854.868 1.022 1.6-.513-.333-.803-.818-1.022-1.6M302.679 106.582c.63.038 1.421.353 2.272 1.02-.664-.014-1.388-.378-2.272-1.02"/><path fill="#cfc6af" d="M181.345 86.017c.2-.603.715-1.255 1.585-1.885-.186.627-.729 1.232-1.585 1.885"/><path fill="#cec4ad" d="M306.694 108.563c.634.055 1.416.397 2.25 1.095-.665-.032-1.384-.42-2.25-1.095"/><path fill="#cfc6af" d="M185.315 82.961c.217-.598.751-1.224 1.638-1.823-.205.617-.763 1.205-1.638 1.823"/><path fill="#cec4ad" d="M319.055 119.302c.6.217 1.22.752 1.812 1.636-.615-.206-1.203-.762-1.812-1.636"/><path fill="#ddcab0" d="M123.995 509.336c7.514 6.013 16.214 8.68 25.952 8.827 1.596.024 3.309 2.012 4.683 3.379.83.824 1.11 2.202 1.996 3.402.934 2.504 1.51 4.936 2.259 8.03.82 1.45 1.466 2.24 2.112 3.029 5.889 14.972 14.662 28.226 26.103 39.311 10.513 10.186 21.927 19.518 33.517 28.485 6.053 4.683 13.341 7.77 19.847 11.883-4.653-1.323-7.423.957-10.403 3.96-4.06 4.091-8.696 7.612-13.084 11.378-15.129-9.04-27.628-21.131-39.033-34.344-6.37-7.38-12.168-15.282-17.872-23.202-3.951-5.485-7.374-11.36-10.903-17.14-4.409-7.22-16.53-11.768-25.937-9.953-10.826 2.09-20.09 6.484-26.3 16.07-.65 1.006-1.909 1.618-2.885 2.413l-1.149-.686c3.839-8.632 7.009-17.65 11.697-25.792 5.003-8.69 11.46-16.54 17.232-24.79.844-1.206 1.419-2.6 2.168-4.26"/><path fill="#d6c2aa" d="M217.038 631.364c4.327-4.11 8.963-7.63 13.023-11.722 2.98-3.003 5.75-5.283 10.56-3.649 3.355 1.423 6.33 2.841 8.981 4.62-3.828-.806-6.916-.966-9.296 2.737-2.468 3.841-5.134 7.6-8.115 11.046-1.175 1.358-3.437 1.774-5.204 2.62-3.296-1.77-6.592-3.539-9.95-5.652"/><path fill="#ceb9a2" d="M227.054 637.374c1.7-1.204 3.962-1.62 5.137-2.978 2.981-3.447 5.647-7.205 8.115-11.046 2.38-3.703 5.468-3.543 9.372-2.392 3.007.75 5.616 1.512 8.32 2.628-4.544-1.705-7.246 1.401-9.873 4.276-2.65 2.901-4.885 6.19-7.59 9.034-4.762 5.008-6.99 5.048-13.48.478M272.032 627.453c.606.071 1.272.456 2.022 1.147-.599-.073-1.28-.454-2.022-1.147"/><path fill="#ddd7c2" d="M186.014 521.36c1.307 1.403 2.615 3.177 3.951 5.298-1.298-1.412-2.624-3.17-3.951-5.299M196.035 537.339q1.417.645 2.94 2.31-1.416-.645-2.94-2.31M182.037 513.304c.638.448 1.295 1.22 1.954 2.345-.644-.438-1.29-1.23-1.954-2.345M160.994 535.65c-.643-.436-1.29-1.225-1.957-2.336.638.446 1.295 1.214 1.957 2.335"/><path fill="#c9baa3" d="M198.91 298.914c1.344-2.655 3.135-4.38 6.732-2.638-7.655 16.732-.212 31.99 2.743 48.523 7.719-4.34 10.913-10.853 14.678-16.928 1.723-2.78 3.91-5.272 6.243-7.882 1.816-.004 3.275-.019 5.044.118 2.91 3.705 5.427 7.321 8.128 10.795 2.977 3.829 6.12 7.527 9.763 11.982.898-2.08 1.453-3.026 1.722-4.046 2.012-7.648 3.496-15.473 6.074-22.921 2.562-7.405 4.617-14.443.248-21.803-.248-.418.455-1.4 1.065-2.122.816-.031 1.283-.06 1.75-.088 1.535.829 3.07 1.657 4.755 3.156.147 1.42.144 2.171-.162 2.798-1.05.052-1.796.228-2.542.404l1.598 2.818c-.805 5.337-1.178 10.784-2.505 15.988-2.813 11.036-6.493 21.857-9.107 32.934-1.939 8.216-2.759 16.697-4.341 25.7-.126 1.52.013 2.401.151 3.282-.002 2.368-.004 4.735-.048 7.542-1.07.452-2.096.463-3.512.016-.38-3.82-.37-7.182-.093-10.772.42-2.408.57-4.589.72-7.156.32-2.129.64-3.87 1.24-5.842.424-1.418.572-2.607.722-4.228.028-1.593-.282-2.893.134-3.89 2.064-4.95.425-8.598-3.566-11.678-1.015-.783-1.718-1.97-2.565-2.973l-12.332-17.016a3200 3200 0 0 0-12.485 17.709c-3.152 3.393-6.146 6.477-9.138 9.93-.755.37-1.512.37-2.647.373-.683-.795-.988-1.59-1.06-2.904-.234-1.38-.702-2.243-1.17-3.105-.414-2.993-.83-5.986-1.24-9.724-.56-1.26-1.125-1.775-1.69-2.29-.722-3.404-1.444-6.807-1.916-10.804-.225-1.46-.7-2.324-1.174-3.188-.028-3.023-.055-6.046.317-9.602.751-1.874 1.103-3.213 1.454-4.553-.008-.393-.017-.785.238-1.651-.566-1.737-1.396-3-2.227-4.264"/><path fill="#cfc6af" d="M215.257 393.822c-.52-.307-.823-.778-1.087-1.544.46.263.883.822 1.087 1.544M176.048 372.457c1.25.401 2.561 1.127 3.942 2.184-1.247-.4-2.565-1.13-3.942-2.184M197.131 386.236c.833.158 1.802.616 2.832 1.417-.858-.144-1.777-.63-2.832-1.417M139.044 357.436c.61.076 1.276.47 2.03 1.169-.598-.08-1.286-.466-2.03-1.169M191.04 381.43c.596.104 1.245.517 1.945 1.247q-.895-.155-1.945-1.247M170.044 369.456c.6.082 1.258.475 1.995 1.175-.593-.083-1.266-.473-1.995-1.175M163.044 366.46c.604.075 1.266.464 2.014 1.157-.594-.078-1.275-.461-2.014-1.157M156.044 363.41c.607.085 1.268.49 2.021 1.2-.594-.091-1.28-.485-2.02-1.2"/><path fill="#d6d0bb" d="M243.702 340.258c1.124.747 1.827 1.935 2.842 2.718 3.99 3.08 5.63 6.728 3.566 11.678-.416.997-.106 2.297-.47 3.954-.45 1.796-.557 3.095-.664 4.394-.322 1.742-.643 3.483-1.237 5.836-.42 2.794-.566 4.977-.713 7.16L247 386.542c.187 7.624.373 14.79.276 22.207-2.279-7.964-5.021-16.086-6.057-24.42-.993-7.988-.524-16.211-.118-24.302.327-6.527 1.517-13.01 2.602-19.769"/><path fill="#cdc5b0" d="M267.996 297.982c.003-.751.006-1.502.015-2.628 8.503 5.873 16.968 12.166 25.525 18.332 1.598 1.152 3.563 1.794 5.395 2.688 2.526-8.537 4.763-16.243 7.112-23.915.48-1.564 1.376-3 2.08-4.495.643.469 1.285.938 1.977 1.76-1.65 7.09-3.168 13.878-5.098 20.548-2.762 9.548-2.804 9.356 5.735 14.146 9.62 5.395 17.52 12.607 21.845 23.039.595 1.434.147 3.3.182 4.967-1.388-1.112-3.44-1.94-4.057-3.38C324.14 338.361 315.08 332.25 306 326.13c-8.367-5.638-16.862-11.087-25.159-16.825-4.339-3.001-8.372-6.443-12.693-10.245-.15-.732-.151-.906-.152-1.08"/><path fill="#d6cbb5" d="M267.693 297.858c.304.297.305.47.302.905-.355.744-.706 1.229-1.152 2.015-.626-.637-1.16-1.577-1.692-2.516.746-.176 1.492-.352 2.542-.404"/><path fill="#cec4ad" d="M251.198 378.81q-.586-1.06-.41-2.647.584 1.059.41 2.647"/><path fill="#cdc1ac" d="M198.574 298.99c1.166 1.187 1.996 2.45 2.566 3.893-1.651.198-3.387-.319-4.378.32-7.913 5.096-15.615 10.52-23.52 15.631-9.036 5.844-18.287 11.358-27.279 17.269-2.135 1.404-3.481 3.958-5.441 5.702-.904.804-2.41.93-3.644 1.364.136-1.306-.167-2.903.477-3.874 5.605-8.457 14.05-13.455 22.71-18.121 2.468-1.33 5.07-2.415 7.634-3.563 4.907-2.199 3.338-6.987 4.726-11.175 1.113-.428 1.84-.43 2.567-.431v7.055c8.478-5.104 15.863-9.55 23.582-14.07"/><path fill="#d1c9b5" d="M174.998 305.554c-.733.452-1.46.454-2.549.461-.378-5.345-.394-10.696-.4-16.51 5.05-.01 3.053 4.265 3.528 6.782.53 2.803-.322 5.867-.579 9.267"/><path fill="#cdc1ac" d="M200.56 304.951c-.013 1.218-.365 2.557-1.063 3.98.01-1.23.367-2.544 1.062-3.98"/><path fill="#cac0a9" d="M205.108 345.326c.507.526.975 1.388 1.202 2.447-.574-.572-.908-1.34-1.202-2.447"/><path fill="#cdc1ac" d="M199.093 319.322c.508.526.983 1.39 1.216 2.454-.578-.574-.914-1.345-1.216-2.454M202.197 333.291c.585.2 1.15.715 1.709 1.557-.581-.195-1.155-.719-1.71-1.557"/><path fill="#dec6ab" d="M261 291.994c-.26.72-.963 1.702-.715 2.12 4.37 7.36 2.314 14.398-.248 21.803-2.578 7.448-4.062 15.273-6.074 22.92-.269 1.021-.824 1.966-1.722 4.047-3.642-4.455-6.786-8.153-9.763-11.982-2.7-3.474-5.219-7.09-8.185-11.176-1.002-2.407-2.09-4.254-2.198-6.157-.805-14.234-1.709-28.473-1.986-42.721-.193-9.942.556-19.902.883-29.854 2.442-3.65 5.077-3.852 8.043-.326 2.11 2.509 3.806 5.361 5.833 7.946.97 1.237 2.277 2.208 3.78 3.339 3.202 9.42 6.055 18.803 8.914 28.184.958 3.14 1.93 6.277 3.169 9.98.272 1.001.27 1.439.269 1.877"/><path fill="#cdc5b0" d="M261.35 291.992c-.349-.436-.347-.874-.343-1.64.651.095 1.299.518 2.02 1.246-.394.334-.86.363-1.677.394"/><path fill="#dec6ab" d="M228.95 319.977c-1.977 2.622-4.164 5.114-5.887 7.894-3.765 6.075-6.96 12.588-14.678 16.928-2.955-16.533-10.398-31.79-2.4-48.501 2.298-11.461 4.689-22.504 6.854-33.59.688-3.523.777-7.162 1.13-11.191 1.383-1.904 2.915-3.257 4.136-4.849 2.15-2.805 4.112-5.755 6.845-8.67a81 81 0 0 1 2.069-.027c.015.743.031 1.487.03 3.076.622 26.874 1.261 52.902 1.9 78.93"/><path fill="#cdb59b" d="M229.306 319.989c-.996-26.04-1.635-52.068-2.244-78.57 1.07-.458 2.108-.441 3.539-.425.064 9.952-.685 19.912-.492 29.854.277 14.248 1.181 28.487 1.986 42.72.107 1.904 1.196 3.751 1.888 6.006-1.402.396-2.86.411-4.677.415M226.977 237.676c-.417.295-.876.296-1.678.27.316-.206.976-.385 1.678-.27"/><path fill="#cec4ad" d="M247.294 375.77q-.183-2.933.446-6.545.186 2.934-.446 6.545M249.253 362.772c-.17-1.07-.062-2.368.382-3.732.19 1.125.043 2.314-.382 3.732"/></svg>